<?xml version="1.0" encoding="UTF-8"?><svg id="uuid-9bc3fb63-baac-4f61-9383-b90c13c63885" xmlns="http://www.w3.org/2000/svg" viewBox="0 0 553.8 279.74"><defs><style>.uuid-935b1197-4b50-4536-851e-b0d6c32fc518{fill:#00baf0;}.uuid-935b1197-4b50-4536-851e-b0d6c32fc518,.uuid-33dfe1c2-4ae8-43e1-98f9-a97aa24ab28d,.uuid-6219090d-9498-4435-88da-79df3d43326f{stroke-width:0px;}.uuid-33dfe1c2-4ae8-43e1-98f9-a97aa24ab28d{fill:#0061b0;}.uuid-6219090d-9498-4435-88da-79df3d43326f{fill:#676868;}</style></defs><g id="uuid-8d27c09c-d253-458d-850c-87fd6599ed53"><path class="uuid-33dfe1c2-4ae8-43e1-98f9-a97aa24ab28d" d="M164.64,138.12c-2.25,32.08-31.58,57.47-74.33,57.47h-12.46C27.51,195.59,0,165.06,0,127.74v-11.48C0,78.54,26.69,47.95,75.3,47.95h13.8c47.17,0,72.38,24.23,75.38,55.3h-40.75c-3.42-16.64-18.15-29.15-35.79-29.15h-6.17c-23.2,0-42.01,18.81-42.01,42.01v10.65c0,23.57,19.11,42.68,42.68,42.68h3.98c18.72,0,34.28-13.52,37.47-31.32h40.75Z"/><polygon class="uuid-33dfe1c2-4ae8-43e1-98f9-a97aa24ab28d" points="294.85 51.09 294.85 103.82 216.31 103.82 216.31 51.09 177.91 51.09 177.91 190.96 216.31 190.96 216.31 130.6 294.85 130.6 294.85 190.96 333.25 190.96 333.25 51.09 294.85 51.09"/><path class="uuid-33dfe1c2-4ae8-43e1-98f9-a97aa24ab28d" d="M391.38,51.09h-38.51v62.98c9.93,0,33.39-6.02,38.51-8.72v-54.26Z"/><path class="uuid-33dfe1c2-4ae8-43e1-98f9-a97aa24ab28d" d="M500.29,91.59v52.57c0,4.43-.47,8.86-1.6,13.14-7.42,27.96-35.03,37.36-68.2,37.68h0s-6.01.01-6.01.01c-33.98,0-62.46-9.23-70-37.69-1.14-4.28-1.6-8.71-1.6-13.14v-24.38s34.89-.6,38.5-1.5v23.72s.61,27.72,33.1,27.42h4.73c31.98,0,32.57-27.42,32.57-27.42v-35.58c17.53-1.32,38.51-14.82,38.51-14.82Z"/><path class="uuid-33dfe1c2-4ae8-43e1-98f9-a97aa24ab28d" d="M461.92,74.66v-23.58h27.97c-5.39,7.41-22.79,20.47-27.97,23.58Z"/><path class="uuid-935b1197-4b50-4536-851e-b0d6c32fc518" d="M553.8,0c-34.45,55.06-109.92,100.34-163.41,113.25,59.72-4.05,131.91-20.66,163.41-113.25Z"/><path class="uuid-935b1197-4b50-4536-851e-b0d6c32fc518" d="M507.87,88.2v22.64c24.28-18.7,39.05-64.64,39.7-68.58-13.51,23.19-19.85,32.4-39.7,45.94Z"/><path class="uuid-935b1197-4b50-4536-851e-b0d6c32fc518" d="M33.06,251.4c3.73-.09,6.71-5.14,6.71-8.87v-11.46c0-8-6.49-14.49-14.49-14.49H7.21v62.46h11.76v-24.95h3.34l8.26,24.95h11.87l-9.37-27.64ZM28.74,238.28c0,3.3-2.68,5.98-5.98,5.98h-3.84v-17.34h3.84c3.3,0,5.98,2.68,5.98,5.98v5.38Z"/><path class="uuid-935b1197-4b50-4536-851e-b0d6c32fc518" d="M62.84,216h0c-9.4,0-17.02,7.62-17.02,17.02v29.7c0,9.4,7.62,17.02,17.02,17.02h0c9.4,0,17.02-7.62,17.02-17.02v-29.7c0-9.4-7.62-17.02-17.02-17.02ZM68.76,260.92c0,3.27-2.65,8.92-5.92,8.92s-5.92-5.65-5.92-8.92v-25.65c0-3.27,2.65-8.92,5.92-8.92s5.92,5.65,5.92,8.92v25.65Z"/><path class="uuid-935b1197-4b50-4536-851e-b0d6c32fc518" d="M118.91,216v46.42c0,9.57-7.76,17.32-17.32,17.32h0c-9.23,0-16.72-7.48-16.72-16.72v-47.02h12.13v48.8c0,2.77,2.25,5.01,5.01,5.01h0c2.77,0,5.01-2.25,5.01-5.01v-48.8h11.88Z"/><polygon class="uuid-935b1197-4b50-4536-851e-b0d6c32fc518" points="152.79 227.47 152.79 216 136.95 216 124.88 216 124.88 227.47 124.88 242.72 124.88 253.02 124.88 268.27 124.88 279.74 136.95 279.74 152.79 279.74 152.79 268.27 136.95 268.27 136.95 253.02 152.79 253.02 152.79 242.72 136.95 242.72 136.95 227.47 152.79 227.47"/><polygon class="uuid-935b1197-4b50-4536-851e-b0d6c32fc518" points="168.06 216.58 157.95 216.58 157.95 279.74 169.89 279.74 169.89 247.41 182.39 279.74 192.91 279.74 192.91 216.58 180.97 216.58 180.97 248.58 168.06 216.58"/><polygon class="uuid-6219090d-9498-4435-88da-79df3d43326f" points="214.24 279.74 214.24 218.44 219.9 218.44 236.91 264.55 236.91 218.44 242.22 218.44 242.22 279.74 237.62 279.74 219.9 231.25 219.9 279.74 214.24 279.74"/><polygon class="uuid-6219090d-9498-4435-88da-79df3d43326f" points="398.6 279.74 398.6 218.44 404.27 218.44 421.27 264.55 421.27 218.44 426.58 218.44 426.58 279.74 421.98 279.74 404.27 231.25 404.27 279.74 398.6 279.74"/><polygon class="uuid-6219090d-9498-4435-88da-79df3d43326f" points="322.12 279.74 322.12 218.44 327.42 218.44 340.04 252.24 352.88 218.44 357.95 218.44 357.95 279.74 352.88 279.74 352.88 230.29 341.55 261.58 337.77 261.58 326.92 230.55 326.92 279.74 322.12 279.74"/><path class="uuid-6219090d-9498-4435-88da-79df3d43326f" d="M380.65,218.44h-4.04l-14.38,61.3h5.3l3.78-18.67h13.88l4.04,18.67h5.55l-14.13-61.3ZM371.57,256.78l6.94-30.44,6.43,30.44h-13.37Z"/><rect class="uuid-6219090d-9498-4435-88da-79df3d43326f" x="471.38" y="218.44" width="5.12" height="61.3"/><path class="uuid-6219090d-9498-4435-88da-79df3d43326f" d="M303.89,250.38c4.63-1.2,8.04-5.4,8.04-10.4v-10.8c0-5.93-4.81-10.74-10.74-10.74h-14.37v61.3h5.12v-29.02h7.43l9.31,27.45h5.48l-10.27-27.79ZM298.84,247.01h-6.9v-24.87h6.9c4.7,0,8.5,3.8,8.5,8.5v7.87c0,4.7-3.8,8.5-8.5,8.5Z"/><path class="uuid-6219090d-9498-4435-88da-79df3d43326f" d="M462.11,262.81v-31.71c0-6.99-5.67-12.66-12.66-12.66h-12.94v61.3h8.68c9.35,0,16.93-7.58,16.93-16.93ZM447.48,274.62h-5.86v-51.06h9.37c3.31,0,6,2.68,6,6v35.55c0,5.25-4.26,9.51-9.51,9.51Z"/><polygon class="uuid-6219090d-9498-4435-88da-79df3d43326f" points="508.07 224.24 508.07 218.44 491.98 218.44 489.42 218.44 486.86 218.44 486.86 279.74 491.98 279.74 491.98 279.74 508.07 279.74 508.07 273.94 491.98 273.94 491.98 250.98 506.25 250.98 506.25 245.18 491.98 245.18 491.98 224.24 508.07 224.24"/><path class="uuid-6219090d-9498-4435-88da-79df3d43326f" d="M251.49,230.14v35.03c0,7.17,5.82,12.99,12.99,12.99h0c7.17,0,12.99-5.82,12.99-12.99v-35.03c0-7.17-5.82-12.99-12.99-12.99h0c-7.17,0-12.99,5.82-12.99,12.99ZM264.48,274.17h0c-4.91,0-8.9-5.98-8.9-10.9v-31.23c0-4.91,3.98-10.9,8.9-10.9h0c4.91,0,8.9,5.98,8.9,10.9v31.23c0,4.91-3.98,10.9-8.9,10.9Z"/></g></svg>